<svg width="533" height="353" viewBox="0 0 533 353" fill="none" xmlns="http://www.w3.org/2000/svg">
<path d="M227.232 318.546C225.798 316.447 226.216 313.535 226.445 311.014L222.837 312.04L219.699 317.885C217.478 322.016 212.364 325.443 207.693 324.412C201.431 323.026 198.512 317.364 199.388 311.524C200.336 305.201 204.664 295.892 210.372 294.501C212.124 292.261 213.922 291.464 216.884 292.371C218.828 292.97 221.211 293.022 222.634 295.012C223.557 296.304 225.209 298.028 225.095 299.679L224.615 306.805C225.527 306.586 227.634 306.19 228.254 305.018C231.21 299.424 235.005 294.329 240.719 291.542C243.899 289.995 247.616 290.021 249.837 292.98C251.114 292.053 252.251 291.662 253.518 292.386C254.362 292.871 255.619 294.006 255.155 295.309L253.372 300.299C253.888 301.856 254.128 303.044 253.664 304.784C250.812 315.452 247.533 325.87 243.227 336.054C239.061 345.915 230.808 355.5 220.476 352.411C214.929 350.749 212.468 345.462 214.694 340.081C218.343 331.257 230.522 326.021 240.213 324.328C241.334 321.13 242.591 318.406 243.055 315.004C241.037 317.379 239.327 319.661 236.621 321.104C233.332 322.865 229.557 321.937 227.232 318.541V318.546ZM247.564 299.486C248.763 299.45 249.504 299.606 250.338 299.049C249.545 298.132 248.977 298.887 248.638 298.82C247.616 298.611 248.304 296.272 246.959 295.767C244.984 295.027 241.558 297.887 239.53 300.617C235.542 305.977 231.971 315.306 234.489 315.796C237.727 316.421 245.348 305.32 247.564 299.486ZM208.245 319.015C209.142 320.005 211.451 318.083 212.014 317.39C216.216 312.389 218.338 306.055 218.135 299.58C217.869 298.293 217.295 297.324 216.623 296.929C215.846 296.475 214.188 296.642 214.032 297.278C214.366 298.486 214.074 299.132 213.312 299.929C211.024 302.336 210.054 305.326 208.61 308.352C207.166 311.379 205.623 315.983 208.245 319.01V319.015ZM223.041 347.9C231.179 345.602 235.61 336.414 238.67 328.694C231.987 330.741 226.408 334.434 222.014 339.31C219.469 342.128 218.891 346.108 220.444 347.399C220.992 347.853 221.878 348.004 223.041 347.9Z" fill="#F33505"/>
<path d="M161.93 288.61C163.603 284.526 165.339 280.223 168.811 280.562C170.24 280.697 173.519 282.281 172.685 284.328C168.645 294.288 164.578 303.94 161.998 314.353L159.725 326.74C170.646 323.417 179.467 316.036 185.562 306.591C191.933 296.715 195.363 282.182 184.457 278.322C171.355 273.686 150.132 285.781 149.856 291.12C149.824 291.699 150.877 292.527 150.752 292.98C150.565 293.652 149.585 294.178 148.719 294.189C146.201 294.215 144.486 292.589 143.647 290.782C142.333 287.948 143.907 283.875 146.905 281.567C158.943 272.305 178.07 267.153 191.031 274.972C196.275 278.134 199.513 283.432 200.008 289.573C201.16 303.898 189.79 319.427 178.138 327.23C161.518 338.362 142.875 333.288 144.981 326.745C146.248 322.813 149.063 328.407 154.6 327.501C152.796 325.933 151.91 323.828 152.15 321.385C153.416 308.597 157.233 300.091 161.935 288.62L161.93 288.61Z" fill="#F33505"/>
<path d="M458.421 289.965C455.08 293.288 452.859 296.96 451.024 301.055L445.32 313.755C444.82 314.875 442.27 314.505 441.389 313.994C440.274 313.348 439.226 311.603 439.518 309.874C441.019 301.05 443.506 292.595 446.743 284.313C447.254 283 449.079 283.052 449.918 283.255C451.065 283.531 452.989 284.443 452.624 285.985L450.904 293.231C454.934 287.86 459.61 279.765 464.266 282.886C467.889 285.313 465.037 289.136 465.204 293.064L472.617 284.125C474.082 282.359 476.345 281.833 478.3 282.901C480.255 283.969 480.818 286.162 480.229 288.626L476.527 304.18C476.23 305.43 476.486 306.696 477.262 307.827C479.869 307.056 481.688 305.217 483.357 302.914C482.017 291.553 493.716 276.332 502.943 278.812C506.488 279.765 508.078 282.886 507.255 286.459C505.576 293.715 498.814 298.903 491.146 298.508C490.567 300.107 490.708 301.768 491.307 303.253C494.253 310.556 509.22 301.607 512.536 292.08C512.791 291.35 514.543 291.491 515.028 291.975C515.471 292.418 516.336 293.309 516.065 294.351C513.5 304.269 504.695 311.421 494.347 311.509C490.64 311.541 487.731 309.921 485.338 306.873C482.627 311.317 478.076 314.63 473.159 312.629C466.784 310.035 470.078 298.127 472.122 290.845C466.622 297.252 463.504 304.378 459.923 311.619C459.235 313.01 457.087 312.353 456.227 311.78C454.975 310.947 454.037 309.598 454.428 307.858L458.416 289.975L458.421 289.965ZM500.9 283.568L499.638 284C495.811 286.433 493.512 290.444 492.131 294.726C501.155 292.694 503.579 282.646 500.9 283.568ZM464.849 293.257L464.839 293.595V293.95L464.849 294.288L464.86 293.95V293.595L464.849 293.257Z" fill="#F33505"/>
<path d="M281.887 310.41L276.679 321.704L273.587 329.048C273.061 330.293 270.501 329.929 269.578 329.147C268.744 328.439 266.737 327.173 267.373 325.663L272.847 312.619L269.599 312.905C268.28 313.02 267.383 312.338 266.732 311.468C266.21 310.77 265.72 309.342 266.659 308.394C269.484 305.561 273.52 306.066 277.013 304.279L284.478 289.84L293.987 273.863L298.179 268.753C299.576 267.05 302 267.92 303.7 268.727C305.399 269.535 307.052 271.123 306.895 273.467L305.222 298.752L308.939 298.763C309.857 298.763 310.732 299.367 311.035 300.044C312.01 302.227 309.189 304.389 305.034 304.764C305.144 311.082 305.29 317.161 306.942 323.23C307.193 324.152 307.636 325.23 306.974 326.048C306.572 326.543 305.733 327.074 304.669 327.236C296.49 328.47 296.323 316 296.427 306.873L281.871 310.416L281.887 310.41ZM296.74 300.023L297.574 281.114C292.887 288.043 289.394 294.757 285.901 302.102L296.74 300.023Z" fill="#F33505"/>
<path d="M357.569 306.003L349.447 324.464C348.3 325.621 345.792 324.782 345.078 323.891C344.145 322.725 343.196 321.079 343.926 319.427L349.035 307.894C347.09 308.186 345.563 308.707 343.988 307.858C342.55 307.082 342.096 303.899 343.717 303.336L352.684 300.206C353.946 299.763 353.909 297.554 354.379 296.658L358.878 288.095L365.494 275.905C366.145 274.702 366.182 274.426 367.011 273.306L372.954 265.253C374.226 263.529 376.676 264.096 378.49 264.914C380.054 265.617 381.603 267.206 381.493 269.43L380.221 294.835C381.957 294.731 383.839 294.403 385.382 295.34C386.248 295.867 386.164 297.195 385.773 298.008C385.487 298.601 384.851 299.258 383.824 299.56L380.133 300.643L381.384 316.5L382.645 320.73C380.555 323.475 376.577 322.933 374.502 320.203C372.563 317.651 372.229 314.229 372.088 311.004L371.718 302.498L357.58 306.009L357.569 306.003ZM371.723 296.153L372.75 277.468C368.199 283.995 364.8 290.71 361.323 298.028L371.723 296.148V296.153Z" fill="#F33505"/>
<path d="M94.0259 307.659C86.821 313.53 83.5314 323.865 79.5797 331.934C78.7925 333.408 76.264 332.423 75.3934 331.767C74.0275 330.741 73.381 329.1 73.7616 327.126C75.383 318.645 77.6143 310.431 80.7527 302.388C81.2793 301.039 83.1717 300.898 84.2092 301.106C85.2466 301.315 87.3632 302.336 86.9879 303.768L84.3708 313.691C88.3485 306.92 94.5733 297.486 100.251 301.252C101.658 302.19 102.607 304.341 102.018 306.508L98.9056 317.937C98.1236 320.817 97.4145 324.407 98.2018 325.803C98.4051 326.162 99.2444 326.542 99.7032 326.094L105.089 320.786C104.541 311.415 112.101 299.893 120.603 297.887C123.763 297.142 127.86 298.247 128.851 301.7C130.895 308.831 121.683 318.406 112.856 317.525C112.471 319.734 112.585 321.88 113.821 323.453C115.432 325.506 118.19 325.271 120.426 324.344C128.747 320.906 131.989 314.067 133.34 314.561C135.811 315.463 130.352 325.146 122.444 328.84C115.953 331.871 110.187 330.751 106.241 324.959L102.649 329.011C100.485 331.454 96.3979 332.783 93.6244 330.746C87.7438 326.417 92.0917 315.723 94.0259 307.659ZM122.892 302.617C120.65 302.039 115.057 308.639 113.811 313.775C121.365 312.733 125.207 303.216 122.892 302.617Z" fill="#F33505"/>
<path d="M408.066 313.775C408.754 304.644 411.339 296.377 414.009 288.001L415.156 284.406C416.177 281.208 417.251 278.244 418.904 275.306L420.249 271.524C413.873 273.176 408.394 276.077 402.612 278.458C400.418 279.364 397.842 277.239 397.42 275.723C396.826 273.587 397.795 271.373 400.021 270.373C413.399 264.352 427.339 260.236 441.926 258.246L452.598 257.793C454.136 257.726 455.038 258.814 455.538 259.939C455.929 260.82 455.648 262.825 454.365 263.117L431.833 268.191C428.59 273.79 426.338 279.281 424.211 285.271C420.442 295.898 417.205 306.389 416.115 317.713C416.037 318.536 416.563 319.583 415.938 320.344C415.51 320.86 414.66 321.329 413.477 321.198C409.942 320.818 407.763 317.76 408.066 313.775ZM403.243 273.077C410.766 269.8 417.653 267.633 424.816 264.94L408.863 269.858C406.705 270.524 404.515 271.28 403.243 273.077Z" fill="#F33505"/>
<path d="M322.212 316.823C326.039 315.125 327.478 311.832 328.734 312.176C330.574 312.682 326.591 319.875 321.68 321.876C317.703 323.496 313.532 320.401 312.666 316.39C311.911 312.905 312.202 309.509 313.183 306.128L317.4 291.548L311.671 291.902C310.55 291.97 309.596 290.975 309.319 290.246C308.939 289.235 309.278 287.542 310.513 287.272L319.923 285.209L323.776 276.515C324.589 274.676 325.705 273.374 327.676 273.556C329.276 273.702 331.659 275.098 330.965 276.999L328.353 284.146C333.963 283.781 341.293 282.109 341.976 285.256C342.132 285.985 341.262 287.105 340.308 287.272L326.06 289.73L321.519 303.988C319.621 309.952 318.87 318.313 322.217 316.828L322.212 316.823Z" fill="#F33505"/>
<path d="M425.297 93.4563L408.151 111.709C407.687 112.204 406.529 112.11 406.17 111.798C405.753 111.428 405.518 110.37 405.94 109.469C412.368 95.8212 421.372 83.8143 432.158 73.2971C435.766 69.781 439.128 66.567 443.628 64.3635C446.062 63.1706 449.498 63.1967 451.01 65.7179C452.521 68.2391 451.192 71.5573 448.919 73.3753C440.765 79.897 432.919 86.2365 425.292 93.4563H425.297Z" fill="#F33505"/>
<path d="M400.758 99.952C400.237 101.15 400.273 101.963 399.158 102.109C398.261 102.223 396.952 101.353 397.14 99.8895C399.121 84.5331 403.714 69.6924 410.387 55.7633C412.123 52.1326 416.481 50.1948 419.651 52.8254C421.46 54.3256 420.897 57.4511 419.896 59.4514L408.104 83.0225L400.753 99.9572L400.758 99.952Z" fill="#F33505"/>
<path d="M416.695 118.887C415.663 119.382 414.704 119.241 414.375 118.762C414.099 118.356 414.136 117.189 414.725 116.658C421.768 110.313 429.953 105.588 438.602 101.567C443.862 99.1186 448.982 96.8474 454.68 96.0504C455.957 95.8733 457.396 96.7589 458.126 97.3996C459.106 98.2643 459.612 99.7697 459.106 101.213C458.246 103.661 456.009 104.864 453.512 105.552C440.854 109.047 428.722 113.131 416.7 118.882L416.695 118.887Z" fill="#F33505"/>
<path d="M433.392 311.765C433.23 313.041 433.814 314.281 432.959 315.036C432.256 315.656 430.952 316.036 429.602 315.552C427.073 314.64 425.906 311.671 426.291 308.827C427.376 300.779 429.628 293.028 433.043 285.683C433.799 284.058 436.624 284.782 437.646 285.443C439.137 286.412 439.387 288.037 438.803 289.965C436.64 297.112 434.367 303.988 433.392 311.765Z" fill="#F33505"/>
<path d="M3.11053 302.659C2.53185 303.695 1.58302 304.065 0.999129 303.878C-2.38433 302.789 3.06361 292.548 13.7405 288.745C14.2827 288.552 14.9083 288.787 15.0752 289.021C16.1022 290.49 8.16748 293.616 3.10532 302.659H3.11053Z" fill="#F33505"/>
<path d="M11.6239 306.091C9.82007 309.774 8.43854 313.139 7.70867 316.994C7.53142 317.947 6.35841 318.166 5.76409 318.036C2.14082 317.239 7.34373 304.284 13.8239 299.981C14.2931 302.388 12.5936 304.117 11.6239 306.097V306.091Z" fill="#F33505"/>
<path d="M12.4527 21.7427C10.3726 21.5761 8.57921 20.503 7.11947 19.6383C5.44077 18.6485 5.00285 16.7681 5.82135 15.2835C6.73368 13.627 8.63655 13.1477 10.4508 14.2104C12.0774 15.1689 13.803 15.8981 14.8717 17.6328C15.7736 19.0965 14.658 21.9146 12.4579 21.7375L12.4527 21.7427Z" fill="#F33505"/>
<path d="M22.2434 4.93301C23.896 7.95428 25.0221 12.8717 22.6552 13.8301C21.5292 14.2885 19.6941 14.1062 19.1154 12.8144L17.0561 8.20953C16.3784 6.69889 16.8789 5.05803 18.2187 4.26624C19.2666 3.64636 21.4249 3.44321 22.2382 4.93301H22.2434Z" fill="#F33505"/>
<path d="M442.62 278.369C441.655 280.703 438.975 282.255 436.822 280.885C434.398 279.343 434.857 276.098 436.765 274.332C438.131 273.066 439.773 272.785 441.29 273.587C442.885 274.436 443.495 276.26 442.62 278.374V278.369Z" fill="#F33505"/>
<path d="M7.03083 5.39662C8.52228 5.39662 9.73135 4.18854 9.73135 2.69831C9.73135 1.20807 8.52228 0 7.03083 0C5.53938 0 4.33032 1.20807 4.33032 2.69831C4.33032 4.18854 5.53938 5.39662 7.03083 5.39662Z" fill="#F33505"/>
<path d="M30.9029 9.55868C32.3368 9.55868 33.4991 8.39725 33.4991 6.96455C33.4991 5.53185 32.3368 4.37042 30.9029 4.37042C29.469 4.37042 28.3066 5.53185 28.3066 6.96455C28.3066 8.39725 29.469 9.55868 30.9029 9.55868Z" fill="#F33505"/>
<path d="M6.95785 31.6608C8.31974 31.6608 9.42377 30.5577 9.42377 29.1969C9.42377 27.8362 8.31974 26.733 6.95785 26.733C5.59597 26.733 4.49194 27.8362 4.49194 29.1969C4.49194 30.5577 5.59597 31.6608 6.95785 31.6608Z" fill="#F33505"/>
<path d="M41.585 247.52L38.0086 268.185L12.9272 269.617L14.0481 261.981L17.5411 244.65L36.0276 155.903C36.0849 155.637 35.6157 155.054 35.72 154.924C35.892 154.705 36.3873 154.47 36.9086 154.444L68.1365 152.845L92.4516 265.335L65.9626 266.758C64.8938 265.101 64.5967 263.429 64.4403 261.611L61.7398 246.546L41.585 247.515V247.52ZM58.1582 226.184L51.6728 185.834L45.0102 227.075L58.1634 226.184H58.1582Z" fill="#181411"/>
<path d="M64.9146 144.292L37.1483 145.62L37.1691 51.5335L15.9039 52.6118L15.7944 28.8636L86.2423 24.9463L86.3779 48.6842L64.7634 49.8666L64.9146 144.292Z" fill="#181411"/>
<path d="M119.154 200.373L119.149 264.038L95.5536 265.21L95.5171 151.6L126.787 149.965L141.009 207.905L155.126 148.662L186.339 147.178L186.459 260.548L162.039 261.736L161.998 197.247L152.869 230.138L148.391 246.218L132.365 247.072L119.154 200.373Z" fill="#181411"/>
<path d="M307.455 233.498L301.475 213.021L294.192 213.307L294.166 254.923L268.032 256.214L268.016 218.808L267.86 143.12C272.745 143.068 277.092 142.745 281.675 142.542L297.32 141.849C304.374 141.536 311.063 141.052 317.929 142.547C327.005 144.521 334.116 150.616 336.54 159.799C339.215 169.931 339.121 180.813 336.222 190.872C334.476 196.93 330.8 201.571 325.749 205.082L337.854 241.754L341.201 252.594L313.466 253.928L307.46 233.492L307.455 233.498ZM310.797 185.027C312.168 175.593 312.069 162.664 303.034 163.05L294.161 163.425L294.187 193.096L304.708 192.189C307.94 191.372 309.864 188.35 310.797 185.027Z" fill="#181411"/>
<path d="M251.985 209.405L223.306 210.958L223.254 236.43L259.482 234.68L259.669 256.824L196.39 259.986L196.364 146.573L258.194 143.719L258.324 165.66L223.301 167.274L223.291 189.21L251.756 187.928L251.985 209.405Z" fill="#181411"/>
<path d="M374.624 138.755H347.462V253.032H374.624V138.755Z" fill="#181411"/>
<path d="M506.109 244.301L502.299 224.246L482.264 225.106L478.489 245.775L453.314 247.026L475.799 135.04C476.227 132.91 477.519 132.67 479.261 132.587L508.393 131.227L524.773 204.571C525.07 205.91 525.623 207.765 525.576 208.733C525.06 210.541 526.066 211.036 526.342 212.323L533 243.004L506.115 244.301H506.109ZM498.769 204.04L491.976 163.961L485.376 204.795L498.769 204.04Z" fill="#181411"/>
<path d="M427.117 205.561L452.266 205.441C453.064 224.606 449.117 242.514 429.979 248.713C422.472 251.141 414.542 251.224 406.691 250.198C402.015 249.588 398.209 247.411 394.137 245.51C392.552 244.77 392.599 244.499 391.614 243.327C385.895 236.534 382.897 228.653 382.814 219.688L382.438 178.677C382.266 160.034 386.88 142.031 405.862 135.989C414.089 133.368 422.748 133.108 431.152 135.056C441.198 137.385 448.163 144.917 450.394 154.939C451.708 160.831 451.849 166.707 451.651 172.942L426.856 175.724L426.627 168.712C426.512 165.238 425.996 161.649 424.109 158.742C422.466 156.215 419.573 155.637 416.596 156.189C411.591 157.117 409.517 163.425 409.527 168.842L409.626 217.365C409.631 220.803 410.429 224.439 412.676 226.918C414.761 229.216 418.04 229.085 420.929 228.132C423.368 227.33 425.172 224.762 426.022 221.72C427.127 216.604 427.044 211.729 427.112 205.551L427.117 205.561Z" fill="#181411"/>
<path d="M32.8109 346.368C25.9345 344.894 21.1434 340.466 18.3386 334.45C12.093 321.062 19.2822 301.127 30.2407 291.021C30.7568 289.094 31.5909 287.708 33.0611 286.458C38.3109 281.994 44.6973 278.936 51.7561 278.509C59.6335 278.03 67.344 281.562 71.1185 288.464C73.4593 292.74 74.1787 297.72 73.9806 302.653C73.5062 314.499 69.1479 325.443 62.162 334.814C55.1761 344.185 44.3688 348.842 32.8161 346.368H32.8109ZM40.5683 284.396L40.3077 284.656L40.5683 284.916L40.829 284.656L40.5683 284.396ZM39.7133 285.135C37.0441 285.328 35.527 287.427 34.109 289.381C36.0431 288.037 37.8626 286.599 39.7133 285.135ZM28.9061 334.538C31.1791 339.044 35.5687 340.883 40.3546 339.685C56.6828 335.596 69.8829 308.191 64.7582 292.282C63.0847 287.089 58.2468 284 52.8301 284.885C48.0807 285.661 43.738 287.995 40.9124 291.48C42.5598 291.662 43.4669 292.095 43.738 293.048C44.1603 294.553 40.902 296.053 37.0232 295.715C29.3231 306.018 22.942 322.719 28.9061 334.538Z" fill="#F33505"/>
<path d="M130.311 119.543L109.207 120.518L105.266 142.318L78.803 143.505L99.7189 43.2667L103.78 24.066L136.202 22.4929C137.771 27.0352 138.251 31.3014 139.325 36.1042L162.409 139.604L134.471 140.906L130.316 119.538L130.311 119.543ZM112.799 99.0405L126.505 98.3789L119.556 57.873L116.078 76.8185L112.794 99.0405H112.799Z" fill="#181411"/>
<path d="M216.461 136.155C205.696 140.614 193.882 141.172 182.945 138.301C172.846 135.655 166.027 128.133 163.963 118.054C162.847 112.6 162.66 107.276 162.722 101.332L188.83 99.5405C189.018 103.546 188.992 107.297 189.774 111.011C190.806 115.918 194.998 118.621 199.852 117.85C203.068 117.34 205.576 115.652 206.764 112.584C209.277 106.083 206.759 99.4676 201.097 95.5712C184.936 84.4498 164.479 79.0584 163.332 54.6746C162.957 46.7412 164.177 38.8807 168.514 32.1974C177.544 18.2995 198.063 15.2574 213.651 19.456C229.578 23.743 233.509 38.5317 232.659 54.0339L207.291 55.6435C207.619 47.7153 206.399 40.0996 198.97 40.2298C195.947 40.2819 193.069 41.6154 191.76 44.5377C189.055 50.6011 191.354 57.2219 196.776 60.8526C210.951 70.3331 230.287 77.0112 234.035 95.4514C237.377 111.876 232.8 129.389 216.456 136.155H216.461Z" fill="#181411"/>
<path d="M372.747 80.5482L344.136 82.0067L344.23 108.162L379.967 106.682L380.046 129.217L317.402 132.28L317.167 14.5386L378.555 11.9288L378.831 34.8749L344.251 36.5209L344.11 59.7587L372.434 58.4304L372.747 80.5482Z" fill="#181411"/>
<path d="M259.628 135.119L259.571 40.6465L237.445 41.4956L237.414 17.9922L284.579 15.9034L308.607 14.997L308.805 38.167L287.045 39.2974L287.123 132.212C287.123 133.014 286.894 133.374 286.555 133.743C286.216 134.113 285.554 134.004 284.808 134.035L259.623 135.124L259.628 135.119Z" fill="#181411"/>
</svg>
