<?xml version="1.0" encoding="UTF-8"?>
<svg id="Layer_2" data-name="Layer 2" xmlns="http://www.w3.org/2000/svg" viewBox="0 0 2351.84 481.51">
  <defs>
    <style>
      .cls-1 {
        fill: #f33606;
      }

      .cls-2 {
        fill: #272425;
      }

      .cls-3 {
        fill: #f33505;
      }

      .cls-4 {
        fill: #fc9c05;
      }
    </style>
  </defs>
  <g id="Layer_1-2" data-name="Layer 1">
    <g>
      <g>
        <path class="cls-1" d="M516.74.02c1.24.45,2.45.04,3.89.16,21.22,1.7,40.85,11.62,53.95,27.14,5.69,6.73,9.87,14.26,12.06,22.52.71,2.66-.86,5.18-2.75,7-3.12,3-7.94,4.22-11.98,2.17-2.77-1.41-4.56-3.93-5.64-6.65-2.53-6.38-6.1-12.02-11.16-17.01-11.03-10.89-28.41-17.48-44.72-15.94l-244.76,23.11-131.54,12.37c-6.88.65-13.18,2.32-19.32,4.93-15.9,6.76-26.74,20.27-29.13,36.33-.81,5.43-4.93,9.33-10.98,9.11-5.21-.19-10.31-4.56-9.72-10.05,1.71-16.14,10.13-30.94,23.19-41.67,10.2-8.38,23.83-15.46,37.59-16.79l144.87-13.93L446.27,6.13,510.74.17c1.28-.12,2.37.23,3.24-.17l2.76.02Z"/>
        <path class="cls-1" d="M97.49,131.58l-32.96,3.08c-12.33,1.15-23.48,6.02-31.61,14.5-14.32,14.93-16.4,36.81-4.88,53.66,10.12,14.81,28.64,22.48,47.41,19.71,3.2-.47,6.31-.82,9.54-.38,5.16.7,8.5,5.09,8.23,9.63-.28,4.69-4.09,8.43-9.28,8.87l-14.21,1.21C28.31,243.73-5.1,209.42.65,171.03c4.42-29.52,30.13-52.46,62.31-55.39l159.01-14.49,350.59-31.94,13.84-.21c36.77,3.19,64.63,32.67,62.68,66.85l-1.61,10.09c-2.46,11.5-8.6,21.96-17.23,30.47-12.99,12.81-31.13,19.83-50.09,19.25-5.8-1.8-8.6-7.73-6.26-12.85,1.43-3.59,4.76-5.72,8.88-5.9,12.66-.57,24.53-5.43,33.12-14.02,4.95-4.95,8.27-10.61,10.43-17.02,5.07-15.05,1.34-31.08-9.95-42.93-10.11-10.61-25.22-16.08-40.58-14.79l-16.76,1.41-461.55,42.03Z"/>
        <g>
          <path class="cls-4" d="M101.39,323.21c-27.71-3.75-48.52-24.5-48.52-50.37,0-6.57,2.33-12.96,6.95-17.84,2.92-3.09,7.25-4.77,11.8-5.21l77.05-7.36,130.49-12.39,186.79-17.66,86.93-8.13,27.72-2.63c10.29-.98,20,2.23,27.67,8.42,14.98,12.08,18.29,31.77,15.19,49.4-5.97,33.91-33,60.36-70.62,63.85l-43.48-.03-407.97-.04ZM104.96,304.8l445.29-.02c12.59-1.41,23-4.69,32.47-12.38,16.27-13.21,24.27-33.22,20.92-53.05-.87-5.14-3.18-9.69-6.89-13.59-3.62-3.81-9.07-5.91-14.8-5.38l-53.1,4.93-90.48,8.47-76.56,7.22-79.12,7.51-99.09,9.4-108.29,10.36c-4.06,2.19-2.04,10.19-.38,14.82,4.47,12.49,16.04,19.7,30.02,21.71Z"/>
          <path class="cls-3" d="M87.77,169.56c-4.21,2.14-7.7,4.4-11.33,7.05l-13.2,9.62c-2.74,2-7.02.88-9.75-.78-3.6-3.24-4.17-8.22-1.23-11.95l21.79-16.08c2.86-2.11,5.95-3.23,9.26-4.68,15.63-6.83,33.64-6.98,49.32,0l15.8,7.82c9.37,4.64,20.08,4.48,29.37-.43,9.25-4.89,14.28-12.46,25.85-18.12,13.39-6.55,28.71-7.15,42.59-1.52,4.48,1.82,8.4,3.97,12.56,6.37,12.14,7.01,26.43,6.38,37.21-2.31l8.18-6.59c14.94-12.04,35.93-15.31,53.9-7.08l12.9,6.7c10.19,5.29,22.88,4.49,32.1-2.26l10-7.8c8.48-6.62,18.44-10.77,29.71-11.02,10.74-.24,20.93,2.6,29.95,7.87,10.47,6.13,21.31,9.94,33.21,5.23,3.29-1.3,6.18-2.84,9.02-4.86l15.47-11.03c10.97-6.85,24.38-8.99,37.34-6.91,5.64.91,10.66,2.52,15.75,4.8,5.39,2.42,10.46,5.09,15.39,8.17,1.88,1.17,3.31,3.05,3.97,4.98,1.2,3.51-.61,7.15-3.57,9.11-3.33,2.21-7.51,1.96-10.89-.19-8.77-5.58-17.74-10.13-28.61-10.54-8.67-.32-16.94,2.09-23.62,7.1l-8.83,6.63c-13.16,9.89-29.02,14.46-45.63,9.99-6.41-1.72-12.17-4.25-17.69-7.71-6.44-4.04-13.75-6.31-21.63-5.63-8.17.7-15.51,4.14-21.28,9.49-14.81,13.72-35.41,19.13-54.98,11.21-4.54-1.83-8.17-4.16-12.35-6.57-10.57-6.08-24.21-6.21-34.4.54l-14.54,11.17c-16.84,11.87-39.42,12.24-56.8,1.22-3.65-2.32-7.57-4.05-11.74-5.48-10.39-3.57-22.6-.72-30.79,5.69l-12.99,10.17c-6.37,4.98-14.16,8.1-22.49,9.32-12.98,1.89-25.91-1.23-36.63-8.04-13.78-8.75-30.69-10.29-45.65-2.67Z"/>
          <path class="cls-4" d="M101.62,207.91c-7.8,2.84-11.78,7.41-15.3,7.73-3.95.37-7.85-2.28-9.06-5.51-1.38-3.68.01-7.69,3.46-10,4.36-2.92,8.9-5.37,13.78-7.43,5.03-2.12,10.04-2.92,15.51-3.19,15.09-.74,24.29,3.28,36.62,10.59,13.37,7.93,30,7.2,41.69-3.2l6.46-5.34c16.17-13.37,37.32-17.6,56.84-7.94l9.25,4.96c3.32,1.78,6.69,3.35,10.51,4.05,5.6,1.03,11.3.66,16.74-.76,3.13-.81,5.72-2.17,8.16-4.05l13.75-10.64c13.9-9.97,31.97-12.03,48.04-5.56,4.1,1.65,7.53,3.68,11.28,5.95,4.96,2.99,10.51,5.01,16.53,5.19,6.56.2,13.33-1.39,18.65-4.94l11.66-9.17c17.06-13.43,40.44-13.91,58.89-2.16,3.78,2.41,7.4,4.3,11.84,5.46,10.46,2.74,21.5.75,29.89-5.63l12.02-9.14c5.94-4.52,13.19-7.27,20.79-8.66,9.04-1.65,18.01-.38,26.51,2.58,2.69.94,5.1,1.93,7.2,3.6,3.76,3,4.46,7.52,1.45,11.29-2.5,3.12-7.29,4.33-11.28,2.27-11.86-6.13-25.3-4.72-35.78,3.27l-11.25,8.58c-12.57,9.59-33.29,12.64-48.26,6.61l-16.94-8.66c-10.27-5.25-22.63-4.44-32.06,2.06l-12.9,9.88c-17.24,12.09-39.26,12.5-56.98,1.39-3.25-2.04-6.21-3.82-9.91-5.03-7.29-2.39-15.06-2.31-22.21.59-4.16,1.69-8.03,3.88-11.27,6.94-7.42,7.02-16.09,12.39-26.43,14.98-8.02,2.01-15.92,1.77-23.87-.24-6.95-1.76-12.85-4.62-18.73-8.36-7.98-5.07-17.95-6.03-27.06-3.47-5.36,1.5-9.7,4.15-13.82,7.49l-9.02,7.32c-16.46,12.55-39.15,14.05-57.5,3.99l-11.9-6.53c-8.3-3.69-17.4-4.26-26-1.13Z"/>
        </g>
      </g>
      <g>
        <path d="M1813.54,337.26c10.61-17.4,29.83-47.63,57.65-90.7,2.56-3.88,5.49-5.97,8.79-6.26,4.39-.38,8.51,2.1,12.35,7.43,3.29,4.29,4.94,8.35,4.94,12.19,0,.37-.27,2.31-.82,5.84-4.76,29.15-7.68,54.11-8.78,74.89l19.49-7.75c2.38-.21,3.57.79,3.57,2.98,0,5.67-7.96,12.69-23.88,21.03l-.27,17.87c0,38.98,4.76,60.89,14.27,65.74,2.74,1.22,4.12,2.66,4.12,4.31,0,2.74-2.47,4.33-7.41,4.76l-1.65.14c-13.55-.28-23.61-9.19-30.2-26.73-5.13-13.46-7.96-31.33-8.51-53.61-15.74,5.22-30.93,8.66-45.57,10.3-11.35,23.5-17.39,41.24-18.12,53.19,0,4.03-2.29,6.24-6.87,6.64-4.39.38-8.19-1.11-11.39-4.49-3.21-3.38-4.8-7.45-4.8-12.21,0-3.66.82-7.57,2.47-11.75,1.65-4.17,5.4-11.63,11.26-22.39,2.56-4.62,4.48-8.17,5.77-10.66-7.51-3-11.08-9.01-10.71-18.01,0-4.39,1.28-6.7,3.84-6.92,1.46-.13,3.38.26,5.76,1.14,5.31,1.18,9.88,1.79,13.73,1.82l10.98-18.8ZM1856.92,349.94c.55-17.43,2.2-36.98,4.94-58.63-13.36,20.39-25.99,41.72-37.88,63.99,10.43-.91,21.41-2.7,32.94-5.35Z"/>
        <path d="M2008.19,369.46c-5.17,4.7-10.78,11.79-16.81,21.26-6.03,9.48-11.44,19.73-16.21,30.76-.79,1.79-2.46,2.8-4.97,3.02-3.18.28-6.14-.59-8.85-2.61-2.72-2.01-4.08-4.35-4.08-7,0-.8,1.52-5.77,4.57-14.92,4.51-13.39,6.89-21.15,7.16-23.3,0-.8-.2-1.18-.6-1.14-.13.01-.47.17-1,.48-6.5,4.02-13.2,10.94-20.09,20.76-6.9,9.82-12.67,20.57-17.31,32.25-1.06,2.88-2.85,4.43-5.37,4.65-2.91.26-5.57-.67-7.96-2.79-2.39-2.11-3.58-4.49-3.58-7.15,0-1.72.4-4.21,1.19-7.46.93-3.66,3.18-9.83,6.76-18.49,4.11-10.31,6.89-17.94,8.35-22.91,1.46-4.96,2.12-9.17,1.99-12.61l-.99-6.68c0-1.19.33-2.02.99-2.47.66-.46,2.19-.79,4.57-1,4.64-.41,8.29.77,10.94,3.52,2.65,2.75,3.98,6.71,3.98,11.89,0,3.31-.53,6.74-1.59,10.28,2.79-3.69,6.57-7.77,11.34-12.23,4.77-4.46,9.28-8.2,13.53-11.23,2.25-1.39,4.24-2.16,5.97-2.31,3.31-.29,6.2.92,8.65,3.62,2.45,2.7,3.68,5.98,3.68,9.82,0,1.19-.13,2.99-.4,5.41,6.9-8.03,12.66-13.84,17.31-17.43,2.25-1.92,4.71-3,7.36-3.23,4.38-.38,8.22,1.27,11.54,4.96,2.79,3.07,4.18,6.33,4.18,9.78,0,2.26-1.46,7.76-4.38,16.49-4.24,12.84-6.43,21.58-6.56,26.24,0,1.99.73,2.92,2.19,2.79l4.97-1.23c1.59-.14,2.39.59,2.39,2.18,0,3.45-2.32,6.84-6.96,10.16-3.58,2.57-6.83,3.98-9.75,4.23-6.76.59-10.14-5.21-10.14-17.41,0-7.69,1.79-20.51,5.37-38.47,0-.53-.27-.77-.8-.73l-.6.25Z"/>
        <path d="M2075.63,387.04c-3.32.29-6.3-.18-8.95-1.41-2.65-1.22-3.98-2.76-3.98-4.62,0-1.59,1.19-2.49,3.58-2.7l.79-.07c3.58-.31,8.09-3.96,13.53-10.93,4.77-6.12,7.16-11.17,7.16-15.15,0-1.46-.33-2.16-1-2.1-.27.02-.67.19-1.19.5-7.16,4.08-14.26,12.19-21.28,24.34-6.1,10.75-9.15,19.77-9.15,27.06v1.99c.13,1.72.46,2.81,1,3.3.53.48,1.52.66,2.98.53,4.38-.38,8.55-1.54,12.53-3.48,3.98-1.94,9.08-5.24,15.32-9.9,2.65-2.22,4.31-3.36,4.97-3.42,1.33-.12,1.99,1.02,1.99,3.41,0,5.97-4.05,12.09-12.13,18.37-6.36,4.93-12.2,7.63-17.5,8.1-10.35.9-18.17-1.72-23.47-7.89-3.71-4.58-5.57-10.25-5.57-17.02,0-7.69,3.05-16.25,9.15-25.67,5.57-8.45,12.4-15.87,20.49-22.28,7.95-6.39,14.72-9.84,20.29-10.33,6.1-.53,10.74.98,13.93,4.55,2.65,2.82,3.98,6.41,3.98,10.79,0,2.79-.79,6.21-2.38,10.26-1.59,4.05-3.65,7.78-6.17,11.18-5.57,7.78-11.87,11.98-18.9,12.59Z"/>
        <path d="M2140.08,350.37c8.49-12.41,15.78-18.89,21.88-19.42,2.25-.2,4.24.72,5.97,2.76,1.72,2.04,2.72,4.77,2.98,8.19,0,3.18-.93,4.86-2.79,5.02l-5.77-.29c-5.84.64-12.33,7.25-19.5,19.81-6.63,11.72-12.93,27.26-18.9,46.61-.53,2.04-1.99,3.16-4.38,3.37-3.32.29-6.43-.7-9.35-2.96-2.92-2.26-4.38-4.86-4.38-7.77,0-1.99,1.86-7.85,5.57-17.59,6.9-17.97,10.34-30.81,10.34-38.5,0-1.19-.33-3.09-.99-5.68-.53-1.81-.79-2.98-.79-3.51,0-1.85,1.66-2.93,4.97-3.22,3.18-.28,6.17.79,8.95,3.2,2.79,2.41,4.84,5.74,6.17,10Z"/>
        <path d="M2180.86,394.34l6.36-2.34c1.46-.13,2.19.6,2.19,2.19,0,3.45-1.79,7.05-5.37,10.81-3.18,3.33-6.17,5.12-8.95,5.36-4.51.4-8.16-1.38-10.94-5.31-2.79-3.93-4.18-9.41-4.18-16.44,0-7.96,2.85-18.95,8.55-32.97,3.58-9.46,5.77-15.89,6.56-19.27.66-2.84,1.79-4.33,3.38-4.47,3.98-.35,7.56.86,10.74,3.64,2.79,2.54,4.18,5.47,4.18,8.79,0,1.33-.33,3.01-1,5.06-.53,1.24-1.33,3.23-2.38,5.98-6.9,17.84-10.68,30.44-11.34,37.79,0,.93.73,1.33,2.19,1.2ZM2206.92,309.11c-.13,2.8-1.29,5.22-3.48,7.27-2.19,2.05-4.94,3.22-8.25,3.51-2.79.24-5.14-.18-7.06-1.27-1.92-1.09-2.88-2.5-2.88-4.22,0-.93.8-2.79,2.39-5.58,2.79-4.22,4.24-8.13,4.38-11.72,0-1.72.66-2.64,1.99-2.76,3.71-.32,6.96,1.38,9.75,5.12,2.25,3.12,3.31,6.34,3.18,9.67Z"/>
        <path d="M2269.78,341.21c-.66,3.64-2.39,6.84-5.17,9.6-2.79,2.76-5.84,4.29-9.15,4.58-1.59.14-2.39-.45-2.39-1.78,0-.92.27-2.01.8-3.25,1.06-2.61,1.59-5.91,1.59-9.89,0-3.58-.53-5.32-1.59-5.23-.27.02-.47.11-.6.25-7.96,3.88-15.32,12.15-22.08,24.81-5.44,10.16-8.16,18.75-8.16,25.78v1.79c.13,1.45.5,2.38,1.09,2.79.6.41,1.82.54,3.68.37,4.91-.56,10.97-3.11,18.2-7.66,7.22-4.54,14.09-10.22,20.59-17.02.93-1.01,1.86-1.55,2.79-1.63,1.46-.13,2.19.74,2.19,2.59,0,3.32-1.46,7.26-4.38,11.82-2.92,4.57-6.76,8.98-11.54,13.24-9.15,8.36-17.57,12.88-25.26,13.55-9.42.82-16.78-2.24-22.08-9.21-3.85-5.1-5.77-11.03-5.77-17.8s2.85-14.57,8.55-23.42c5.44-8.3,12.07-15.58,19.89-21.83,8.22-6.42,15.71-9.93,22.48-10.52,5.83-.51,10.28,1.02,13.33,4.6,2.25,2.72,3.38,6.07,3.38,10.05,0,.93-.13,2.07-.4,3.42Z"/>
        <path d="M2344.98,329.86c0,1.46-.37,2.72-1.09,3.78-.73,1.06-1.63,1.63-2.69,1.73-1.06.09-1.66-.32-1.79-1.24-.93-2.97-3.58-4.26-7.96-3.88-3.71.32-7.76,2.3-12.14,5.94-4.37,3.63-8.49,8.47-12.33,14.51-7.03,10.96-10.74,21.3-11.14,31.01,0,2.52.46,3.74,1.39,3.66,5.57-.49,12.86-7.02,21.88-19.62,6.5-8.92,11.01-16.55,13.53-22.87.79-2.32,2.45-3.6,4.97-3.82,3.31-.29,6.4.53,9.25,2.47,2.85,1.94,4.28,4.17,4.28,6.69,0,1.19-.27,2.28-.8,3.25-4.91,12.63-7.36,22.4-7.36,29.29,0,1.19.6,1.74,1.79,1.63.53-.05,1.39-.32,2.59-.82.13-.14.33-.23.6-.25.93-.08,1.39.81,1.39,2.66,0,3.05-1.16,5.87-3.48,8.46-2.32,2.59-4.94,4.01-7.86,4.27-4.24.37-7.43-1.67-9.55-6.13-1.59-3.57-2.39-8.28-2.39-14.11v-2.79c-12.86,17.17-23.47,26.12-31.83,26.85-5.3.46-9.75-1.8-13.33-6.79-3.05-4.37-4.57-10.07-4.57-17.1,0-8.09,2.46-16.66,7.36-25.71,4.77-9.04,10.87-16.67,18.3-22.89,8.09-6.54,16.24-10.17,24.47-10.89,6.37-.56,11.2.54,14.52,3.31,2.65,2.29,3.98,5.42,3.98,9.4Z"/>
      </g>
      <path class="cls-2" d="M1876.47,481.5c62.45-3.32,124.8-7.93,187.07-13.77,62.93-5.9,125.69-13.16,188.41-20.89,17.51-2.16,35.01-4.4,52.5-6.73,4.37-.58,8.74-1.17,13.11-1.76,4.64-.63,9.22-.93,13.32-3.48,1.91-1.18,3.75-2.71,5.4-4.26.52-.49,1.07-.97,1.57-1.48,1.06-.9.68-.66-1.12.74.39-.24.8-.46,1.22-.65,0,0-3.33,1.17-1.27.65-7.52,1.93-13.78-6.53-11.43-14.14,1.01-1.65,2.02-3.3,3.02-4.95-.95.88-.33.46,1.84-1.26-1.17.63-.44.36,2.17-.8,6.09.98,8.07,1.02,5.92.09,1.95,1.21,3.9,2.41,5.84,3.62,1.08,2.79,2.16,5.59,3.24,8.38.41-7-5.95-13.86-13.02-13.74-7.45.13-13.3,5.53-13.74,13.02-.48,8.13,5.93,14.9,13.95,15.28,5.89.28,11.89-2.8,15.01-7.82,3.8-6.1,2.9-14.01-2.15-19.13-4.72-4.79-12.07-6.3-18.36-4.08-4.63,1.63-7.92,4.28-11.24,7.77-.34.36-1.35,1.06-1.52,1.49l1.58-1.13c-1.18.65-.75.53,1.29-.35-.24-.17-2.35.46-2.67.52-1.33.24-2.66.47-3.99.71-8.32,1.48-16.65,2.93-24.98,4.37-32.98,5.69-66.02,11.02-99.13,15.88-66.22,9.72-132.61,18.2-199.15,25.42-37.44,4.06-74.91,7.95-112.41,11.41-2.98.27-5.59,2.14-5.68,5.38-.08,2.81,2.38,5.84,5.38,5.68h0Z"/>
      <path d="M904.3,160.12c0,77.37-36.5,114.23-113.23,114.23h-77.93c-4.74,0-8.58-3.71-8.58-8.31V54.2c0-4.59,3.84-8.31,8.58-8.31h77.93c76.73,0,113.22,36.87,113.23,114.23ZM846.41,160.13c0-48.73-19.19-62.13-59.13-62.13h-22.81c-3.38,0-6.13,2.66-6.13,5.93v112.37c0,3.27,2.75,5.93,6.13,5.93h22.81c39.94,0,59.13-13.39,59.13-62.12Z"/>
      <path d="M1176.46,160.11c0,64.77-54.22,117.29-121.1,117.29s-121.1-52.51-121.1-117.29,54.22-117.29,121.1-117.29,121.1,52.51,121.1,117.29ZM1120.85,160.11c0-35.03-29.31-63.43-65.49-63.43s-65.49,28.39-65.49,63.43,29.32,63.43,65.49,63.43,65.5-28.39,65.49-63.43Z"/>
      <path d="M1327.85,277.4c-63.33,0-120.94-49.69-120.94-117.29s54.22-117.29,121.1-117.29c36.06,0,68.4,15.29,90.56,39.53,2.16,2.35,2.05,5.91-.25,8.13l-30.74,29.77c-1.22,1.17-2.9,1.8-4.63,1.72-1.73-.08-3.34-.86-4.44-2.16-12.01-14.11-30.16-23.13-50.52-23.13-36.17,0-65.5,28.39-65.5,63.43s29.24,63.42,65.33,63.42c19.03,0,40.42-8.47,53.82-26.96,1.31-1.81,1.48-4.18.43-6.15-1.05-1.96-3.15-3.19-5.44-3.19h-47.53c-4.74,0-8.58-3.72-8.58-8.31v-27.04c0-4.59,3.83-8.3,8.58-8.3h93.64c4.74,0,8.58,3.71,8.58,8.3v67.02c0,1.61-.49,3.19-1.4,4.55-18.96,28.07-53.48,53.95-102.08,53.95Z"/>
      <path class="cls-1" d="M1541.34,54.18c0-4.59,3.84-8.31,8.58-8.31h36.63c4.75,0,8.58,3.72,8.58,8.31v211.86c0,4.6-3.83,8.31-8.58,8.31h-36.63c-4.74,0-8.58-3.71-8.58-8.31V54.18Z"/>
      <path class="cls-1" d="M1825.79,89.67c0,4.6-3.84,8.31-8.58,8.31h-58.73c-3.38,0-6.13,2.66-6.13,5.93v162.13c0,4.59-3.84,8.31-8.58,8.31h-36.63c-4.75,0-8.58-3.72-8.58-8.31V103.92c0-3.28-2.75-5.93-6.13-5.93h-58.73c-4.74,0-8.58-3.71-8.58-8.31v-35.49c0-4.6,3.84-8.31,8.58-8.31h183.5c2.28,0,4.46.88,6.07,2.43,1.61,1.56,2.51,3.67,2.51,5.88v35.49Z"/>
      <path class="cls-1" d="M2124.81,45.87c4.74,0,8.58,3.72,8.58,8.31v132.74c0,59.66-33.59,90.44-98.61,90.48-65-.06-98.61-30.83-98.61-90.48V54.18c0-4.59,3.84-8.31,8.58-8.31h36.62c4.75,0,8.58,3.72,8.58,8.31v123.3c0,32.52,15.37,49.26,44.83,49.33,29.46-.06,44.83-16.8,44.83-49.33V54.18c0-4.59,3.83-8.31,8.58-8.31h36.62Z"/>
      <path class="cls-1" d="M2351.14,128.3c0,33.02-8.14,82.67-90.29,82.67h-37.15c-3.38,0-6.13,2.66-6.13,5.93v49.14c0,4.6-3.83,8.31-8.58,8.31h-36.63c-4.74,0-8.58-3.71-8.58-8.31V54.18c0-4.59,3.84-8.31,8.58-8.31h88.49c82.14,0,90.29,49.4,90.29,82.42ZM2295.89,128.3c0-16.88-10.43-30.33-29.94-30.33h-42.25c-3.38,0-6.13,2.66-6.13,5.94v49.05c0,3.27,2.75,5.93,6.13,5.93h42.25c19.51,0,29.94-13.71,29.94-30.59Z"/>
    </g>
  </g>
</svg>