<?xml version="1.0" encoding="UTF-8"?>
<svg id="Layer_2" data-name="Layer 2" xmlns="http://www.w3.org/2000/svg" viewBox="0 0 2214.6 273.79">
  <defs>
    <style>
      .cls-1 {
        fill: #030303;
      }

      .cls-2 {
        fill: #f33505;
      }

      .cls-3 {
        fill: #fc9c05;
      }
    </style>
  </defs>
  <g id="Layer_1-2" data-name="Layer 1">
    <g>
      <g>
        <path class="cls-2" d="M46.5,158.49c-1.05,0-2.17-.21-3.08-.58-2.29-.93-3.46-3.13-3.8-4.88-.53-2.74.19-5.21,1.93-6.61l15.51-12.43c3.05-2.45,6.53-3.94,9.9-5.39,5.58-2.4,11.48-3.62,17.53-3.62,6.81,0,13.45,1.52,19.76,4.52l8.03,4.4c3.77,2.06,7.32,4.01,11.82,4.67,1.06.16,2.15.23,3.23.23,4.73,0,9.42-1.45,13.57-4.21,2.69-1.79,4.88-3.79,7.19-5.91.79-.73,1.61-1.48,2.45-2.21,7.98-7.03,17.29-10.75,26.91-10.75.57,0,1.15.01,1.72.04,7.42.35,14.55,2.9,22.45,8.03,4.76,3.09,9.65,4.65,14.56,4.65,5.63,0,11.11-2.16,15.85-6.25.88-.76,1.75-1.53,2.59-2.28,3.1-2.75,6.02-5.35,9.59-7.46,6.09-3.59,12.89-5.49,19.66-5.49,6,0,11.82,1.43,17.3,4.25l10.22,5.8.04.02c3.31,1.57,6.76,2.36,10.25,2.36,4.9,0,9.65-1.59,13.75-4.6l.03-.02,9.25-7.83c6.41-5.43,14.39-8.3,23.07-8.3,7.69,0,15.35,2.27,22.16,6.57,6.93,4.37,12.37,6.32,17.63,6.32,5.53,0,10.87-2.16,16.81-6.8l11.09-8.68c6.75-4.16,14.05-6.28,21.73-6.28,3.93,0,7.9.57,11.82,1.7,6.94,1.99,12.69,5.47,18.78,9.14,3.17,1.91,6.03,5.73,3.65,10.2-1.24,2.34-3.73,3.85-6.33,3.85-1.34,0-2.67-.4-3.85-1.17l-.32-.21c-4.44-2.9-8.64-5.64-13.74-7.36-3.34-1.12-6.73-1.69-10.07-1.69-6.51,0-12.63,2.17-17.68,6.28-.79.65-1.58,1.29-2.36,1.94-4.03,3.33-7.83,6.47-12.43,8.87-5.67,2.97-11.52,4.47-17.39,4.47-8.04,0-16.29-2.81-24.52-8.35-4.37-2.94-9.31-4.5-14.27-4.5-6.97,0-13.78,3-19.17,8.45-7.71,7.8-17.94,12.28-28.06,12.28-1.37,0-2.76-.08-4.12-.24-6.24-.73-12.25-3.14-18.39-7.36-4.73-3.25-9.75-4.9-14.95-4.9-1.22,0-2.46.09-3.69.28-4.27.64-8.31,2.36-11.09,4.72l-9.98,8.46c-6.88,5.3-14.95,8.1-23.34,8.1-7.12,0-14.13-2.09-20.28-6.03-5.08-3.27-11.09-6.75-18-6.75-.91,0-1.84.06-2.75.18-5.44.72-10.3,2.95-14.84,6.83l-10.18,8.69c-6.24,4.4-12.56,6.8-19.35,7.33-.98.08-1.99.12-2.98.12-7.91,0-15.91-2.51-22.53-7.06-6.31-4.34-13.31-6.63-20.26-6.63-5.87,0-11.56,1.59-16.9,4.73-4.62,2.71-8.65,6-12.93,9.48-1.56,1.27-3.17,2.58-4.81,3.86-1.07.83-2.45,1.01-3.43,1.01Z"/>
        <path class="cls-3" d="M129.43,188.16c-7.74,0-15.39-2.35-22.14-6.8-4.26-2.81-8.51-5.42-13.81-6.52-1.58-.33-3.21-.5-4.83-.5-5.26,0-10.55,1.74-15.28,5.02-.37.26-.75.54-1.13.82-1.7,1.25-3.46,2.53-5.32,2.53-.33,0-.65-.04-.98-.12-3.06-.73-5.49-3.22-5.78-5.93-.36-3.39.89-5.83,4.08-7.92,5.35-3.51,11.17-7.02,18.35-7.97l6.73-.38,5.13.36c7.68,1.11,14.15,4.75,19.99,8.53,4.78,3.09,10.12,4.72,15.43,4.72,6.19,0,11.89-2.17,16.48-6.26l7.01-6.26c7.39-6.6,17.06-10.39,26.53-10.39,1.89,0,3.78.15,5.6.45,7.05,1.16,11.98,4.12,16.33,6.74,3.87,2.32,7.52,4.52,11.99,5.12,1.18.16,2.43.24,3.7.24,5.67,0,10.88-1.54,13.92-4.11l9.45-8c7.23-6.11,15.7-9.34,24.51-9.34,7.81,0,15.65,2.58,22.65,7.45,4.88,3.4,10.12,5.19,15.14,5.19,1.27,0,2.54-.12,3.78-.35,4.87-.91,8.32-2.43,11.19-4.93l6.58-5.73c7.49-6.53,16.15-9.98,25.02-9.98,2.35,0,4.74.24,7.1.72,5.78,1.18,11.07,3.46,15.72,6.8,4.8,3.45,10.31,5.27,15.93,5.27s11-1.83,15.59-5.3l.04-.03,9.03-7.47c3.17-2.62,6.83-4.68,11.5-6.46,3.84-1.46,7.91-2.21,12.08-2.21,5.51,0,11.14,1.27,16.76,3.78,1.98.88,6.5,3.46,5.81,8.36-.31,2.19-2.1,4.39-3.59,5.18-1.03.54-2.12.82-3.22.82-1.35,0-2.77-.4-4.22-1.2-3.4-1.87-7.26-2.86-11.15-2.86-5.67,0-11.28,2.05-15.79,5.78l-9.79,8.09c-7.03,5-15.04,7.64-23.17,7.64-3.03,0-6.07-.37-9.04-1.1l-.64-.16c-2.08-.5-3.72-.9-5.48-1.9l-9.39-5.3c-4.27-2.87-9.08-4.38-13.92-4.38s-9.96,1.66-14.16,4.8l-.05.04-9.44,7.96c-7.02,5.34-15.04,8.16-23.19,8.16-2.16,0-4.33-.2-6.46-.6-5.93-1.12-11.27-3.36-15.87-6.66-4.86-3.49-9.98-5.25-15.23-5.25-6.88,0-13.53,3.08-19.25,8.9-7.89,8.03-18.54,12.83-28.51,12.83-2.18,0-4.34-.22-6.43-.66-6.55-1.38-11.98-3.67-16.58-7-4.47-3.23-9.66-4.94-15.01-4.94-6.35,0-12.62,2.44-17.66,6.88l-7.75,6.81c-7.26,5.89-15.86,9.01-24.87,9.01Z"/>
        <path class="cls-3" d="M79.12,273.73c-9.7-1.58-18.33-5.82-24.94-12.27-6.7-6.54-10.99-15.02-12.4-24.53-.85-5.73-.4-10.6,1.39-14.89,3.99-9.78,9.8-10.31,18.61-11.12.99-.09,2-.18,3.05-.29l9.01-.95,9.05-.92,9.9-1,8.99-.94,9.48-.92,8.52-.96,9.47-.94,9.47-.96,9.48-.96,8.57-.9,9.9-1,9-.94,9.48-.96,8.99-.92,8.58-.9,9.68-1,9.69-.98,8.58-.89,9.42-.97,18-1.88,9.47-.96,9.48-.97,8.58-.92,10.38-1.01,8.09-.86,19.37-1.95,9.48-.96,18.93-1.9,9.49-.95,8.1-.89,19.35-1.92,9.49-.98,9.04-.89,9.91-1.01,9.47-.93,8.11-.88,9.89-.97,8.1-.91c1.36-.15,2.72-.23,4.03-.23,9.5,0,17.52,3.99,23.82,11.86,6.71,8.38,9.63,21.5,7.82,35.11-4.08,30.61-26.32,53.18-55.35,56.18l-354-.07ZM456.59,186.58c-.71,0-1.44.04-2.19.12l-11.22,1.2-8.61.87-10.37,1.03-9.95.96-8.58.89-10.38,1-8.11.86-9.87,1.01-9.48.95-9.49.98-9.47.93-7.64.86-10.34,1.03-9.04.89-9.91,1-9.49.98-8.55.88-9.42.99-9.48.96-9.48.95-8.09.87-9.9,1-9.46.97-9.49.95-8.11.88-10.08,1.02-9.28.92-9.47.97-9.49.95-8.09.86-9.91,1-9,.96-8.55.9-9.9,1-9.48.95-9.04.91-10.33,1.05-8.6.89-8.99.93-9.04.93-9.81,1.04-12.61,1.32-.29.28c-1.96,1.88-1.46,4.93-1.13,6.96l.06.4c1.97,12.56,10.9,21.06,24.5,23.32l.1.02h349.09s.08-.02.08-.02c9.61-1.27,16.57-3.86,22.55-8.41,14.03-10.67,21.35-28.22,19.13-45.79-.6-4.75-2.36-8.89-5.22-12.33-2.77-3.33-6.49-5.01-11.06-5.01Z"/>
        <path class="cls-2" d="M52.09,204.88c-2.16,0-4.16-.12-6.13-.35-9.85-1.19-19.45-5.4-27.04-11.86C7.24,182.72.53,168.91.03,153.76c-.5-15.14,5.56-29.99,16.61-40.72,9.07-8.81,20.48-13.95,33.93-15.27l118.06-11.61,273.16-26.93,1.68-.17c4.09-.41,7.95-.8,11.81-.8,2.56,0,4.89.17,7.13.53,11.71,1.85,22.28,7.33,30.57,15.84,8.29,8.52,13.45,19.21,14.91,30.93.52,4.19.72,7.35.16,11.12l-1.04,7.06c-2.61,11.81-9.09,22.5-18.28,30.08-9.42,7.79-20.86,11.9-33.08,11.91h-.18c-2,0-3.48-1.11-4.37-2.03-1.52-1.58-2.46-3.85-2.39-5.79.14-3.86,2.72-7.87,7.39-8.07,14.45-.64,26.95-8.97,32.62-21.75,5.89-13.28,4.16-27.94-4.62-39.2-7.16-9.18-18.11-14.44-30.06-14.44-2.06,0-4.17.16-6.25.47l-13.2,1.19-116.28,11.46-76.13,7.5-163.91,16.15-28.92,2.96c-10.06,1.03-19.06,6.07-25.32,14.19-6.35,8.23-9.08,18.82-7.48,29.04,2.85,18.27,18.24,31.54,36.59,31.54h0c.44,0,.88,0,1.32-.02,1.63-.06,3.22-.27,4.74-.47,1.77-.24,3.44-.46,5.19-.46.59,0,1.15.03,1.71.08,3.79.36,6.8,3.72,6.86,7.64.06,4.07-2.93,7.52-6.96,8.03-4.93.62-9.39,1.13-13.91,1.13Z"/>
        <path class="cls-2" d="M58.85,89.13c-.41,0-.83-.03-1.24-.1-4.43-.69-7.4-4.83-6.76-9.44,1.89-13.75,8.33-25.75,18.63-34.7,9.21-8,19.44-12.79,29.59-13.85l113.8-11.84,138.23-14.21L398.49.25c1.67-.17,3.39-.25,5.09-.25,12.06,0,24.36,4.17,34.64,11.76,10.44,7.7,17.9,18.31,21.02,29.88.59,2.2-.24,4.06-1.03,5.24-1.4,2.07-3.8,3.58-6.11,3.85-.33.04-.65.06-.97.06-4.7,0-6.93-4.25-7.85-6.78-5.14-14.23-17.54-24.4-33.17-27.21-2.18-.39-4.22-.57-6.4-.57s-4.56.2-6.71.42l-183.82,18.79-107.53,10.92c-21.14,2.15-36,15.83-38.78,35.7-.57,4.09-3.94,7.07-8.02,7.07Z"/>
      </g>
      <g>
        <path class="cls-2" d="M1893.4,269.87c-13.37,0-26.9-2.19-39.13-6.33-19.78-6.7-35.26-18.68-45.99-35.62-10.14-16-15.5-36.03-15.49-57.91l.07-155.01c0-5.49,4.29-7.45,8.3-7.45l48.54.52c1.44.02,5.13,3.53,5.13,5.73l.54,160.78c.03,9.55,5.77,19.03,11.44,24.19,6.79,6.18,15.64,9.44,25.6,9.44,3.64,0,7.39-.44,11.15-1.31,16.01-3.7,27.68-18.42,27.75-34.99l.67-157.19c.01-3.17,1.08-6.95,6.09-6.98l45.52-.25c3.58,0,6.11.85,6.68,1.65,1.24,1.76,2.94,5.66,2.91,8.4l-.45,42.5-.28,76.66-.84,47.78c-2.22,23.88-12.33,45.33-28.49,60.39-17.29,16.11-42.05,24.99-69.72,24.99Z"/>
        <path class="cls-2" d="M2037.61,266.64c-3.54,0-6.78-1.23-7.87-2.43-1.94-2.13-2.14-4.42-2.14-9.14l-.09-237.35c0-3.1.48-5.64,1.4-7.34.96-1.77,2.34-2.57,4.47-2.57l96.49.44c21.89.1,43.39,9.58,60.54,26.69,20.54,20.49,28.68,53.81,21.78,89.14-6.7,34.29-31.29,56.93-69.24,63.74-6.07,1.09-12.5,1.6-20.24,1.6-3.6,0-6.94-.1-10.17-.21-2.7-.08-5.25-.17-7.56-.17-5.15,0-15.87,0-15.9,9.03l-.22,61.46c-.01,3.62-3.5,6.81-7.47,6.83l-43.78.26ZM2121.23,67.32l-32.12.5.35,65.5,37.05-.44.2-.03c15.81-2.27,25.85-13.79,26.87-30.84.58-9.82-2.41-18.75-8.45-25.15-5.8-6.16-14.08-9.55-23.3-9.55-.2,0-.4,0-.61,0Z"/>
        <path class="cls-2" d="M1636.22,266.6c-1.14,0-2.31-.05-3.44-.09-.96-.04-1.91-.08-2.85-.09l-34.14-.47c-2.32-.03-8.36-.75-8.36-3.68l-.22-185.63c0-5.16-3.85-9.08-8.93-9.13l-48.15-.4c-2.18-.02-5.19-3.61-5.19-5.63l-.13-45.5c0-1.27.52-3.55,1.54-5.45.85-1.59,1.88-2.58,2.68-2.58l175.38-.34c4.04,0,7.19,3.1,7.2,7.05l.07,45.45c0,2.03-.58,3.6-1.78,4.8-1.67,1.67-4.61,2.63-8.06,2.63l-45.46-.09c-3.68,0-7.78,3.13-7.78,7.62l-.23,163.88-.53,19.29c-.07,2.57-.91,5.68-3.04,6.69-3.03,1.45-6.02,1.64-8.55,1.64Z"/>
        <path class="cls-2" d="M1446.32,265.85c-2.43,0-4.22-.62-5.33-1.85-1.14-1.26-1.72-3.27-1.72-5.97l.04-243.22c0-6.32,5.24-7.26,8.36-7.26l47.05.33c4.58.03,5.81,5.29,5.81,8.39v241.75c0,3.94-1.23,6.13-4.34,7.62l-49.88.21Z"/>
        <path class="cls-1" d="M564.45,266.43c-2.54,0-4.51-.74-5.86-2.19-1.34-1.44-2.05-3.59-2.05-6.22l.18-244.37c0-3.01,3.28-6.19,6.37-6.19l111.14.8c25.75,1.39,49.7,10.58,69.27,26.58,19.55,15.98,33.28,37.57,39.72,62.43,8.93,34.47,6.62,68.68-6.68,98.94-8.58,19.53-22.51,36.32-40.27,48.54-17.76,12.22-38.62,19.36-60.32,20.66l-111.51,1.03ZM621.06,69.01l-.03,135.22,42.38.37c26.1,0,48.08-14.46,57.35-37.73,7.95-19.95,7.59-42-1.01-62.1-9.54-22.3-30.56-36.15-54.86-36.15l-43.82.39Z"/>
        <path class="cls-1" d="M1231.82,270.42c-10.49,0-21.19-1.11-31.78-3.31-26.72-5.54-50.41-19.2-68.51-39.49-17.88-20.05-29.1-45.15-32.45-72.6-3-24.64.33-49.34,9.64-71.43,9.47-22.46,24.97-41.78,44.84-55.87,22.21-15.75,50.33-24.42,79.18-24.42,39.39,0,74.92,15.77,97.46,43.26,1.06,1.29,1.5,2.52,1.37,3.78-.2,1.9-1.73,4.07-4.29,6.11l-40.03,31.82c-.33.27-.55.3-.72.3-1.54,0-4.09-2.6-5.45-3.99-.27-.28-.53-.54-.77-.78-12.31-12.22-29.38-18.95-48.04-18.95-6.18,0-12.46.73-18.68,2.16-27.39,6.32-47.87,28.78-52.18,57.22-3.58,23.6,2.74,45.7,17.78,62.22,13.26,14.57,32.55,22.92,52.94,22.92h0c10.55,0,21.16-2.29,30.71-6.61,12.75-5.78,21.19-14.63,25.09-26.31l1.39-4.15-54.82-.26h-.08c-.14,0-.29.01-.43.01-5.2,0-7.07-4.16-7.1-7.72l-.26-36.82c-.02-3.41,1.04-6.45,2.91-8.34,1.51-1.52,3.51-2.29,5.95-2.29l116.29.29c4.74.01,5.87,7.43,5.91,10.29.32,24.25-2.83,44.88-9.91,64.94-8.68,24.58-24.42,44.75-45.52,58.33-20.01,12.88-44.36,19.68-70.42,19.69h-.01Z"/>
        <path class="cls-1" d="M943.53,270.75c-73.81,0-133.85-60.05-133.85-133.85S869.73,3.04,943.53,3.04s133.85,60.05,133.85,133.85-60.05,133.85-133.85,133.85ZM943.74,64.95c-39.64,0-71.89,32.25-71.89,71.89s32.25,71.89,71.89,71.89,71.89-32.25,71.89-71.89-32.25-71.89-71.89-71.89Z"/>
      </g>
    </g>
  </g>
</svg>