<svg width="620" height="410" viewBox="0 0 620 410" fill="none" xmlns="http://www.w3.org/2000/svg">
<g clip-path="url(#clip0_217_77)">
<path d="M263.958 369.465C262.292 367.03 262.777 363.653 263.043 360.729L258.852 361.919L255.207 368.698C252.627 373.489 246.686 377.465 241.26 376.268C233.987 374.661 230.596 368.094 231.613 361.321C232.715 353.986 237.742 343.19 244.373 341.576C246.408 338.979 248.497 338.054 251.937 339.105C254.195 339.8 256.963 339.861 258.616 342.169C259.688 343.667 261.608 345.667 261.475 347.582L260.918 355.847C261.977 355.593 264.424 355.134 265.145 353.775C268.578 347.286 272.987 341.377 279.624 338.145C283.318 336.35 287.636 336.381 290.216 339.812C291.7 338.737 293.02 338.284 294.492 339.124C295.473 339.685 296.932 341.003 296.393 342.513L294.322 348.301C294.922 350.107 295.2 351.485 294.661 353.503C291.349 365.876 287.539 377.96 282.537 389.772C277.699 401.209 268.112 412.325 256.109 408.743C249.666 406.815 246.807 400.683 249.393 394.442C253.632 384.207 267.779 378.135 279.037 376.172C280.339 372.462 281.798 369.302 282.337 365.357C279.994 368.112 278.007 370.758 274.864 372.432C271.043 374.474 266.659 373.398 263.958 369.459V369.465ZM287.576 347.358C288.969 347.316 289.829 347.497 290.798 346.851C289.877 345.788 289.217 346.664 288.823 346.585C287.636 346.343 288.436 343.631 286.873 343.045C284.578 342.187 280.599 345.504 278.244 348.669C273.611 354.886 269.462 365.707 272.387 366.275C276.148 367 285.002 354.125 287.576 347.358ZM241.902 370.009C242.944 371.157 245.626 368.927 246.28 368.124C251.161 362.324 253.626 354.977 253.39 347.467C253.081 345.975 252.415 344.851 251.634 344.392C250.731 343.866 248.806 344.06 248.624 344.797C249.012 346.198 248.672 346.948 247.788 347.872C245.13 350.663 244.003 354.131 242.326 357.642C240.648 361.152 238.856 366.493 241.902 370.003V370.009ZM259.089 403.51C268.542 400.846 273.69 390.188 277.244 381.235C269.481 383.609 263.001 387.893 257.896 393.548C254.94 396.816 254.268 401.432 256.073 402.93C256.709 403.456 257.738 403.631 259.089 403.51Z" fill="#F33505"/>
<path d="M188.101 334.743C190.045 330.007 192.062 325.016 196.095 325.409C197.754 325.566 201.563 327.403 200.594 329.777C195.901 341.329 191.177 352.524 188.18 364.602L185.539 378.969C198.227 375.114 208.473 366.553 215.553 355.599C222.953 344.144 226.938 327.288 214.269 322.811C199.05 317.434 174.397 331.463 174.076 337.655C174.039 338.326 175.263 339.287 175.117 339.812C174.899 340.592 173.761 341.202 172.755 341.214C169.83 341.244 167.838 339.359 166.863 337.263C165.337 333.976 167.166 329.251 170.648 326.575C184.631 315.833 206.85 309.857 221.905 318.926C227.998 322.593 231.758 328.738 232.334 335.861C233.672 352.476 220.464 370.486 206.929 379.537C187.623 392.448 165.967 386.563 168.413 378.975C169.885 374.413 173.155 380.902 179.586 379.851C177.491 378.032 176.462 375.592 176.74 372.758C178.212 357.925 182.645 348.059 188.107 334.755L188.101 334.743Z" fill="#F33505"/>
<path d="M547.751 332.079C543.869 335.934 541.289 340.193 539.157 344.942L532.532 359.672C531.951 360.971 528.989 360.542 527.966 359.949C526.67 359.2 525.453 357.176 525.792 355.17C527.536 344.936 530.425 335.13 534.185 325.524C534.779 324.001 536.898 324.061 537.873 324.297C539.206 324.617 541.44 325.675 541.016 327.463L539.018 335.867C543.699 329.638 549.131 320.249 554.539 323.868C558.748 326.684 555.436 331.118 555.629 335.674L564.241 325.306C565.943 323.258 568.571 322.648 570.842 323.886C573.113 325.125 573.767 327.668 573.083 330.526L568.783 348.567C568.438 350.017 568.734 351.485 569.637 352.796C572.665 351.902 574.778 349.769 576.716 347.099C575.16 333.922 588.749 316.268 599.468 319.143C603.586 320.249 605.433 323.868 604.476 328.013C602.526 336.429 594.672 342.446 585.764 341.987C585.091 343.842 585.255 345.769 585.951 347.491C589.373 355.962 606.76 345.582 610.611 334.532C610.908 333.686 612.943 333.849 613.506 334.411C614.021 334.925 615.026 335.958 614.711 337.166C611.731 348.67 601.503 356.965 589.482 357.068C585.176 357.104 581.797 355.225 579.017 351.69C575.868 356.844 570.581 360.687 564.871 358.367C557.464 355.358 561.292 341.546 563.666 333.1C557.277 340.531 553.655 348.796 549.495 357.194C548.695 358.808 546.2 358.046 545.201 357.382C543.748 356.415 542.658 354.85 543.112 352.832L547.745 332.091L547.751 332.079ZM597.094 324.66L595.629 325.161C591.184 327.983 588.513 332.635 586.908 337.601C597.391 335.245 600.207 323.59 597.094 324.66ZM555.218 335.897L555.205 336.29V336.701L555.218 337.094L555.23 336.701V336.29L555.218 335.897Z" fill="#F33505"/>
<path d="M342.685 355.793L336.635 368.891L333.044 377.41C332.432 378.854 329.459 378.431 328.387 377.525C327.418 376.703 325.086 375.235 325.825 373.483L332.184 358.354L328.411 358.687C326.879 358.82 325.837 358.028 325.08 357.019C324.474 356.21 323.905 354.554 324.995 353.455C328.278 350.168 332.965 350.754 337.022 348.682L345.694 331.934L356.74 313.404L361.609 307.477C363.232 305.501 366.048 306.51 368.023 307.447C369.997 308.383 371.917 310.226 371.735 312.945L369.791 342.271L374.109 342.283C375.175 342.283 376.192 342.984 376.543 343.77C377.676 346.301 374.4 348.808 369.573 349.243C369.7 356.572 369.87 363.623 371.789 370.661C372.08 371.731 372.595 372.981 371.826 373.93C371.359 374.504 370.385 375.12 369.149 375.308C359.647 376.739 359.454 362.275 359.575 351.69L342.667 355.799L342.685 355.793ZM359.938 343.745L360.907 321.814C355.463 329.849 351.405 337.637 347.348 346.156L359.938 343.745Z" fill="#F33505"/>
<path d="M430.599 350.681L421.164 372.093C419.831 373.435 416.918 372.462 416.089 371.429C415.005 370.075 413.902 368.166 414.75 366.251L420.685 352.875C418.426 353.213 416.652 353.817 414.823 352.832C413.152 351.932 412.625 348.241 414.508 347.588L424.924 343.957C426.39 343.443 426.347 340.882 426.892 339.842L432.119 329.91L439.804 315.772C440.561 314.377 440.603 314.056 441.566 312.757L448.47 303.417C449.947 301.417 452.794 302.075 454.901 303.024C456.718 303.84 458.516 305.682 458.389 308.262L456.912 337.728C458.928 337.607 461.114 337.226 462.907 338.314C463.912 338.924 463.815 340.465 463.361 341.407C463.028 342.096 462.289 342.857 461.096 343.208L456.809 344.464L458.262 362.856L459.728 367.761C457.299 370.945 452.679 370.317 450.268 367.151C448.016 364.191 447.628 360.221 447.464 356.481L447.034 346.615L430.611 350.687L430.599 350.681ZM447.04 339.256L448.233 317.585C442.947 325.155 438.998 332.943 434.959 341.431L447.04 339.25V339.256Z" fill="#F33505"/>
<path d="M109.223 356.838C100.853 363.647 97.032 375.634 92.4416 384.993C91.5271 386.702 88.59 385.56 87.5787 384.799C85.992 383.609 85.2411 381.706 85.6832 379.416C87.5666 369.58 90.1585 360.052 93.8042 350.724C94.4158 349.159 96.6141 348.996 97.8192 349.237C99.0244 349.479 101.483 350.663 101.047 352.325L98.007 363.834C102.628 355.98 109.858 345.038 116.453 349.407C118.088 350.494 119.191 352.989 118.506 355.503L114.891 368.758C113.983 372.099 113.159 376.262 114.073 377.881C114.31 378.298 115.285 378.739 115.817 378.22L122.073 372.063C121.437 361.194 130.218 347.83 140.096 345.504C143.766 344.64 148.526 345.921 149.676 349.926C152.05 358.197 141.349 369.302 131.097 368.281C130.648 370.843 130.782 373.332 132.217 375.157C134.088 377.537 137.292 377.265 139.89 376.19C149.555 372.202 153.322 364.269 154.89 364.843C157.761 365.888 151.42 377.12 142.233 381.404C134.694 384.92 127.996 383.621 123.412 376.903L119.239 381.603C116.726 384.437 111.978 385.977 108.756 383.615C101.925 378.594 106.976 366.191 109.223 356.838ZM142.754 350.99C140.15 350.319 133.652 357.974 132.205 363.931C140.98 362.723 145.443 351.684 142.754 350.99Z" fill="#F33505"/>
<path d="M489.256 359.696C490.056 349.104 493.059 339.516 496.16 329.801L497.492 325.632C498.679 321.923 499.927 318.485 501.847 315.077L503.409 310.691C496.003 312.606 489.638 315.971 482.922 318.733C480.372 319.784 477.381 317.319 476.89 315.561C476.2 313.084 477.326 310.516 479.912 309.356C495.452 302.372 511.645 297.599 528.59 295.291L540.986 294.765C542.773 294.686 543.82 295.949 544.402 297.254C544.856 298.275 544.529 300.601 543.039 300.94L516.865 306.824C513.099 313.319 510.482 319.687 508.012 326.635C503.633 338.96 499.872 351.128 498.607 364.263C498.516 365.218 499.128 366.432 498.401 367.314C497.904 367.912 496.917 368.456 495.542 368.305C491.437 367.864 488.905 364.318 489.256 359.696ZM483.655 312.491C492.393 308.691 500.393 306.178 508.714 303.054L490.183 308.758C487.676 309.531 485.132 310.407 483.655 312.491Z" fill="#F33505"/>
<path d="M389.527 363.23C393.972 361.261 395.644 357.442 397.103 357.841C399.241 358.427 394.614 366.771 388.91 369.091C384.289 370.97 379.444 367.381 378.439 362.729C377.561 358.687 377.9 354.747 379.038 350.826L383.938 333.916L377.282 334.326C375.98 334.405 374.872 333.251 374.551 332.405C374.109 331.233 374.503 329.269 375.938 328.955L386.869 326.563L391.344 316.479C392.289 314.346 393.585 312.836 395.874 313.047C397.733 313.216 400.501 314.836 399.695 317.041L396.661 325.33C403.177 324.907 411.692 322.968 412.485 326.617C412.667 327.463 411.656 328.762 410.547 328.955L393.997 331.807L388.722 348.343C386.517 355.261 385.645 364.958 389.533 363.236L389.527 363.23Z" fill="#F33505"/>
<path d="M494.034 108.395L474.117 129.565C473.578 130.139 472.233 130.031 471.815 129.668C471.331 129.239 471.058 128.013 471.549 126.967C479.016 111.138 489.474 97.2118 502.004 85.0135C506.195 80.9353 510.101 77.2075 515.327 74.6519C518.155 73.2683 522.146 73.2985 523.902 76.2227C525.659 79.1469 524.114 82.9955 521.474 85.1041C512.002 92.6684 502.888 100.021 494.028 108.395H494.034Z" fill="#F33505"/>
<path d="M465.529 115.929C464.924 117.319 464.966 118.261 463.67 118.43C462.628 118.563 461.108 117.554 461.326 115.857C463.628 98.0455 468.963 80.8326 476.714 64.6769C478.731 60.4658 483.794 58.2183 487.476 61.2694C489.577 63.0094 488.923 66.6345 487.76 68.9545L474.062 96.2934L465.523 115.935L465.529 115.929Z" fill="#F33505"/>
<path d="M484.042 137.891C482.843 138.465 481.729 138.302 481.347 137.746C481.026 137.275 481.069 135.921 481.753 135.305C489.935 127.946 499.442 122.466 509.489 117.802C515.6 114.962 521.547 112.328 528.166 111.404C529.649 111.198 531.321 112.226 532.169 112.969C533.307 113.972 533.895 115.718 533.307 117.391C532.308 120.231 529.71 121.627 526.809 122.424C512.105 126.478 498.013 131.215 484.048 137.885L484.042 137.891Z" fill="#F33505"/>
<path d="M518.676 357.364C518.488 358.844 519.167 360.282 518.173 361.158C517.356 361.877 515.842 362.318 514.273 361.756C511.336 360.699 509.98 357.255 510.428 353.956C511.688 344.622 514.304 335.631 518.27 327.113C519.148 325.227 522.431 326.067 523.618 326.835C525.35 327.958 525.64 329.843 524.962 332.079C522.449 340.368 519.809 348.343 518.676 357.364Z" fill="#F33505"/>
<path d="M308.081 365.768C309.31 376.474 294.958 387.735 293.553 383.21C292.802 380.793 297.102 379.754 299.04 373.374C299.748 371.048 295.981 364.167 301.747 362.179C304.429 361.254 307.712 362.596 308.075 365.774L308.081 365.768Z" fill="#F33505"/>
<path d="M3.6132 351.038C2.94099 352.24 1.83881 352.669 1.16055 352.452C-2.76975 351.189 3.5587 339.311 15.9612 334.9C16.5911 334.677 17.3178 334.949 17.5116 335.221C18.7046 336.924 9.48745 340.549 3.60714 351.038H3.6132Z" fill="#F33505"/>
<path d="M13.5025 355.019C11.4072 359.291 9.80236 363.194 8.95453 367.665C8.74863 368.77 7.38604 369.024 6.69567 368.873C2.4868 367.949 8.53061 352.923 16.0581 347.932C16.6032 350.724 14.6289 352.73 13.5025 355.025V355.019Z" fill="#F33505"/>
<path d="M14.4654 25.2183C12.0491 25.0249 9.96587 23.7803 8.27021 22.7774C6.3202 21.6295 5.8115 19.4484 6.76228 17.7265C7.82207 15.8052 10.0325 15.2494 12.1399 16.4819C14.0294 17.5936 16.0339 18.4394 17.2754 20.4513C18.3231 22.1491 17.0271 25.4176 14.4715 25.2122L14.4654 25.2183Z" fill="#F33505"/>
<path d="M25.8385 5.72154C27.7582 9.22576 29.0663 14.9292 26.3169 16.0409C25.0088 16.5725 22.8771 16.3611 22.2049 14.8627L19.8128 9.52181C19.0255 7.7697 19.6069 5.86655 21.1633 4.9482C22.3805 4.22923 24.8877 3.9936 25.8324 5.72154H25.8385Z" fill="#F33505"/>
<path d="M529.395 318.63C528.275 321.337 525.162 323.137 522.661 321.548C519.845 319.76 520.378 315.996 522.594 313.948C524.181 312.479 526.089 312.153 527.851 313.084C529.704 314.068 530.412 316.183 529.395 318.636V318.63Z" fill="#F33505"/>
<path d="M8.16726 6.25925C9.89976 6.25925 11.3042 4.85807 11.3042 3.12963C11.3042 1.40118 9.89976 0 8.16726 0C6.43476 0 5.03029 1.40118 5.03029 3.12963C5.03029 4.85807 6.43476 6.25925 8.16726 6.25925Z" fill="#F33505"/>
<path d="M35.8974 11.0866C37.563 11.0866 38.9132 9.73953 38.9132 8.07782C38.9132 6.41611 37.563 5.06903 35.8974 5.06903C34.2318 5.06903 32.8815 6.41611 32.8815 8.07782C32.8815 9.73953 34.2318 11.0866 35.8974 11.0866Z" fill="#F33505"/>
<path d="M8.08247 36.7218C9.66447 36.7218 10.9469 35.4423 10.9469 33.864C10.9469 32.2857 9.66447 31.0063 8.08247 31.0063C6.50048 31.0063 5.21802 32.2857 5.21802 33.864C5.21802 35.4423 6.50048 36.7218 8.08247 36.7218Z" fill="#F33505"/>
<path d="M48.306 287.086L44.1516 311.054L15.0165 312.715L16.3185 303.858L20.376 283.757L41.8503 180.824C41.917 180.515 41.3719 179.839 41.493 179.688C41.6929 179.434 42.2682 179.162 42.8738 179.132L79.1488 177.277L107.394 307.749L76.6235 309.398C75.382 307.477 75.0368 305.537 74.8552 303.429L71.7182 285.956L48.306 287.08V287.086ZM67.5578 262.339L60.0242 215.539L52.2847 263.372L67.5638 262.339H67.5578Z" fill="#181411"/>
<path d="M75.4062 167.357L43.1524 168.897L43.1766 59.771L18.4744 61.0217L18.3473 33.4773L100.181 28.9339L100.339 56.4662L75.2306 57.8377L75.4062 167.357Z" fill="#181411"/>
<path d="M138.412 232.402L138.406 306.244L110.997 307.604L110.955 175.833L147.278 173.936L163.799 241.138L180.198 172.426L216.455 170.704L216.594 302.196L188.228 303.574L188.18 228.777L177.576 266.925L172.374 285.575L153.758 286.566L138.412 232.402Z" fill="#181411"/>
<path d="M357.146 270.822L350.2 247.071L341.74 247.404L341.71 295.671L311.351 297.17L311.333 253.784L311.151 165.997C316.826 165.937 321.876 165.562 327.2 165.327L345.373 164.523C353.567 164.16 361.337 163.599 369.313 165.333C379.856 167.622 388.116 174.691 390.932 185.343C394.039 197.094 393.93 209.715 390.563 221.382C388.534 228.408 384.265 233.792 378.396 237.864L392.458 280.398L396.346 292.971L364.129 294.517L357.152 270.815L357.146 270.822ZM361.028 214.603C362.621 203.661 362.506 188.666 352.011 189.113L341.704 189.548L341.734 223.962L353.955 222.91C357.709 221.962 359.944 218.458 361.028 214.603Z" fill="#181411"/>
<path d="M292.711 242.878L259.397 244.679L259.337 274.223L301.42 272.193L301.638 297.876L228.131 301.544L228.1 170.003L299.924 166.692L300.075 192.14L259.391 194.013L259.379 219.455L292.445 217.968L292.711 242.878Z" fill="#181411"/>
<path d="M435.171 160.934H403.619V293.478H435.171V160.934Z" fill="#181411"/>
<path d="M587.907 283.352L583.481 260.091L560.208 261.088L555.823 285.062L526.579 286.512L552.698 156.626C553.195 154.155 554.697 153.877 556.719 153.781L590.56 152.204L609.588 237.272C609.933 238.824 610.575 240.975 610.52 242.099C609.921 244.196 611.09 244.77 611.411 246.262L619.144 281.848L587.914 283.352H587.907ZM579.381 236.655L571.49 190.17L563.823 237.531L579.381 236.655Z" fill="#181411"/>
<path d="M496.148 238.42L525.362 238.281C526.288 260.508 521.704 281.28 499.473 288.469C490.752 291.285 481.541 291.382 472.421 290.191C466.989 289.484 462.568 286.959 457.838 284.754C455.997 283.896 456.052 283.582 454.907 282.222C448.264 274.344 444.782 265.203 444.685 254.805L444.249 207.238C444.049 185.615 449.408 164.734 471.458 157.726C481.014 154.687 491.073 154.385 500.835 156.644C512.505 159.345 520.596 168.082 523.188 179.706C524.714 186.539 524.877 193.354 524.647 200.586L495.845 203.812L495.579 195.68C495.446 191.65 494.846 187.488 492.654 184.116C490.746 181.186 487.385 180.515 483.927 181.156C478.113 182.231 475.703 189.548 475.715 195.831L475.83 252.11C475.836 256.098 476.763 260.315 479.373 263.191C481.795 265.855 485.605 265.704 488.96 264.599C491.794 263.668 493.889 260.69 494.876 257.161C496.16 251.228 496.063 245.573 496.142 238.408L496.148 238.42Z" fill="#181411"/>
<path d="M38.1138 401.734C30.1261 400.024 24.5607 394.889 21.3026 387.911C14.0476 372.383 22.3987 349.262 35.1283 337.541C35.7278 335.305 36.6967 333.698 38.4045 332.248C44.5028 327.07 51.9213 323.524 60.1211 323.028C69.2716 322.472 78.2283 326.569 82.6128 334.574C85.3319 339.534 86.1676 345.31 85.9375 351.032C85.3864 364.771 80.3237 377.464 72.2087 388.334C64.0938 399.203 51.5398 404.604 38.1199 401.734H38.1138ZM47.1251 329.855L46.8223 330.158L47.1251 330.46L47.4279 330.158L47.1251 329.855ZM46.1319 330.713C43.0312 330.937 41.269 333.372 39.6218 335.637C41.8685 334.079 43.982 332.411 46.1319 330.713ZM33.5779 388.013C36.2183 393.239 41.3174 395.372 46.8768 393.983C65.8439 389.24 81.1775 357.454 75.2246 339.003C73.2806 332.979 67.6607 329.396 61.3686 330.423C55.8516 331.324 50.8071 334.03 47.5247 338.072C49.4384 338.284 50.4922 338.785 50.8071 339.891C51.2976 341.637 47.5126 343.377 43.007 342.984C34.0624 354.935 26.65 374.305 33.5779 388.013Z" fill="#F33505"/>
<path d="M151.372 138.652L126.857 139.782L122.279 165.067L91.5392 166.444L115.836 50.1828L120.553 27.9129L158.215 26.0883C160.038 31.3567 160.595 36.3049 161.843 41.8754L188.658 161.919L156.204 163.429L151.378 138.646L151.372 138.652ZM131.03 114.872L146.951 114.105L138.878 67.1239L134.839 89.0977L131.024 114.872H131.03Z" fill="#181411"/>
<path d="M251.446 157.919C238.941 163.091 225.218 163.737 212.513 160.408C200.782 157.339 192.861 148.615 190.463 136.924C189.167 130.598 188.949 124.424 189.022 117.53L219.35 115.452C219.568 120.098 219.537 124.448 220.446 128.756C221.645 134.447 226.514 137.583 232.152 136.689C235.888 136.096 238.801 134.139 240.182 130.58C243.101 123.04 240.176 115.367 233.599 110.848C214.826 97.9489 191.062 91.6957 189.73 63.4142C189.294 54.2126 190.711 45.0956 195.75 37.3441C206.239 21.2247 230.075 17.6963 248.182 22.5659C266.683 27.5383 271.249 44.6908 270.262 62.6711L240.794 64.538C241.175 55.3424 239.758 46.5094 231.128 46.6604C227.616 46.7209 224.273 48.2675 222.753 51.657C219.61 58.6896 222.281 66.3686 228.579 70.5797C245.045 81.5757 267.506 89.3213 271.861 110.709C275.742 129.759 270.425 150.071 251.44 157.919H251.446Z" fill="#181411"/>
<path d="M432.991 93.4236L399.756 95.1153L399.865 125.451L441.378 123.735L441.469 149.872L368.701 153.424L368.428 16.8625L439.737 13.8356L440.058 40.4495L399.889 42.3587L399.725 69.311L432.627 67.7703L432.991 93.4236Z" fill="#181411"/>
<path d="M301.589 156.717L301.523 47.1438L275.821 48.1286L275.785 20.8682L330.573 18.4455L358.485 17.3942L358.715 44.2679L333.437 45.579L333.528 153.346C333.528 154.276 333.262 154.693 332.868 155.122C332.474 155.551 331.705 155.424 330.839 155.46L301.583 156.723L301.589 156.717Z" fill="#181411"/>
</g>
<defs>
<clipPath id="clip0_217_77">
<rect width="619.144" height="409.426" fill="white"/>
</clipPath>
</defs>
</svg>
