<svg width="22" height="18" viewBox="0 0 22 18" fill="none" xmlns="http://www.w3.org/2000/svg">
<path d="M6.75 8.75C7.85457 8.75 8.75 7.85457 8.75 6.75C8.75 5.64543 7.85457 4.75 6.75 4.75C5.64543 4.75 4.75 5.64543 4.75 6.75C4.75 7.85457 5.64543 8.75 6.75 8.75Z" stroke="#FC9C05" stroke-width="1.5" stroke-linecap="round" stroke-linejoin="round"/>
<path d="M1.54129 9.72995C1.02246 8.82252 0.749686 7.79529 0.75 6.75C0.75 5.1587 1.38214 3.63258 2.50736 2.50736C3.63258 1.38214 5.1587 0.75 6.75 0.75H16.75C17.8109 0.75 18.8283 1.17143 19.5784 1.92157C20.3286 2.67172 20.75 3.68913 20.75 4.75C20.75 6.96 18.982 8.192 16.75 8.75C12.75 9.75 11.939 10.728 9.667 11.995C8.75356 12.5032 7.72321 12.7639 6.678 12.7514C5.63279 12.7388 4.60899 12.4534 3.70801 11.9235C2.80703 11.3935 2.06013 10.6374 1.54129 9.72995Z" stroke="#FC9C05" stroke-width="1.5" stroke-linecap="round" stroke-linejoin="round"/>
<path d="M0.75 6.75V10.75C0.749686 11.7953 1.02246 12.8225 1.54129 13.7299C2.06013 14.6374 2.80703 15.3935 3.70801 15.9235C4.60899 16.4534 5.63279 16.7388 6.678 16.7514C7.72321 16.7639 8.75356 16.5032 9.667 15.995C11.939 14.728 12.75 13.75 16.75 12.75C18.982 12.192 20.75 10.96 20.75 8.75V4.75" stroke="#FC9C05" stroke-width="1.5" stroke-linecap="round" stroke-linejoin="round"/>
</svg>
