<svg width="24" height="24" viewBox="0 0 24 24" fill="none" xmlns="http://www.w3.org/2000/svg">
<path d="M9.99976 18.5C10.3975 18.5 10.779 18.6582 11.0603 18.9395C11.3416 19.2208 11.4998 19.6022 11.4998 20C11.4998 20.3978 11.3416 20.7792 11.0603 21.0605C10.779 21.3418 10.3975 21.5 9.99976 21.5C9.60202 21.4999 9.22046 21.3418 8.93921 21.0605C8.65798 20.7793 8.49976 20.3978 8.49976 20C8.49976 19.6022 8.65798 19.2207 8.93921 18.9395C9.22046 18.6582 9.60202 18.5001 9.99976 18.5ZM16.9998 18.5C17.3975 18.5 17.779 18.6582 18.0603 18.9395C18.3416 19.2208 18.4998 19.6022 18.4998 20C18.4998 20.3978 18.3416 20.7792 18.0603 21.0605C17.779 21.3418 17.3975 21.5 16.9998 21.5C16.602 21.4999 16.2205 21.3418 15.9392 21.0605C15.658 20.7793 15.4998 20.3978 15.4998 20C15.4998 19.6022 15.658 19.2207 15.9392 18.9395C16.2205 18.6582 16.602 18.5001 16.9998 18.5ZM4.99097 2.5C5.09579 2.49973 5.1987 2.53274 5.28394 2.59375C5.36838 2.65431 5.4319 2.73961 5.46558 2.83789V2.83887L6.57593 6.1582L6.69019 6.5H20.9988C21.0794 6.50013 21.1589 6.52021 21.2302 6.55762C21.3003 6.59438 21.3603 6.6473 21.406 6.71191C21.4937 6.84627 21.5155 7.01722 21.4587 7.17969L18.7019 14.5244V14.5254C18.5951 14.8111 18.4034 15.0573 18.1531 15.2314C17.9026 15.4056 17.6046 15.4994 17.2996 15.5H9.70972C9.39433 15.5003 9.08663 15.4013 8.83081 15.2168C8.57506 15.0324 8.38428 14.7719 8.28491 14.4727L8.28394 14.4717L4.7439 3.8418L4.63062 3.5H2.48999V2.5H4.99097ZM7.24585 8.1582L9.24585 14.1582L9.35913 14.5H17.656L17.7781 14.1758L20.0281 8.17578L20.281 7.5H7.02612L7.24585 8.1582Z" fill="white" stroke="#0A0808"/>
</svg>
