<svg width="24" height="24" viewBox="0 0 24 24" fill="none" xmlns="http://www.w3.org/2000/svg">
<path d="M21.33 2.52997C20.96 2.38997 20.54 2.47997 20.26 2.74997C20.18 2.81997 18.4 4.51997 15.41 3.01997C13.36 1.98997 9.81001 1.37997 6.53001 3.01997C2.24001 5.17997 0.730006 10.61 3.10001 15.37C3.48001 16.13 3.93001 16.79 4.44001 17.38C4.15001 18.78 3.99001 20.32 3.99001 22H5.99001C5.99001 20.85 6.06001 19.82 6.20001 18.88C6.87001 19.29 7.59001 19.6 8.37001 19.78C9.03001 19.94 9.69001 20 10.34 20C12.77 20 14.98 19.04 16.06 18.23C17.88 16.86 19.38 15.56 20.86 12.34C22.26 9.26997 21.98 3.63997 21.96 3.39997C21.949 3.20856 21.8827 3.02445 21.7691 2.87001C21.6555 2.71557 21.4995 2.59744 21.32 2.52997H21.33ZM19.05 11.51C17.76 14.32 16.56 15.36 14.87 16.64C13.77 17.47 11.17 18.39 8.84001 17.84C8.02001 17.65 7.29001 17.28 6.65001 16.76C8.50001 10.17 13.74 10.03 14 10.03V8.02997C13.83 8.02997 10.51 8.06997 7.71001 10.86C6.60001 11.96 5.76001 13.34 5.14001 14.96C5.05001 14.81 4.97001 14.66 4.89001 14.5C3.24001 11.2 3.75001 6.67997 7.43001 4.81997C8.59001 4.23997 9.80001 4.00997 10.92 4.00997C12.32 4.00997 13.6 4.35997 14.51 4.81997C16.87 5.99997 18.75 5.73997 19.99 5.23997C19.97 7.03997 19.81 9.83997 19.04 11.53L19.05 11.51Z" fill="#FC9C05"/>
</svg>
