<svg width="24" height="24" viewBox="0 0 24 24" fill="none" xmlns="http://www.w3.org/2000/svg">
<path d="M8 12C9.10457 12 10 11.1046 10 10C10 8.89543 9.10457 8 8 8C6.89543 8 6 8.89543 6 10C6 11.1046 6.89543 12 8 12Z" stroke="#FC9C05" stroke-width="1.5" stroke-linecap="round" stroke-linejoin="round"/>
<path d="M2.79129 12.9799C2.27246 12.0725 1.99969 11.0453 2 10C2 8.4087 2.63214 6.88258 3.75736 5.75736C4.88258 4.63214 6.4087 4 8 4H18C19.0609 4 20.0783 4.42143 20.8284 5.17157C21.5786 5.92172 22 6.93913 22 8C22 10.21 20.232 11.442 18 12C14 13 13.189 13.978 10.917 15.245C10.0036 15.7532 8.97321 16.0139 7.928 16.0014C6.88279 15.9888 5.85899 15.7034 4.95801 15.1735C4.05703 14.6435 3.31013 13.8874 2.79129 12.9799Z" stroke="#FC9C05" stroke-width="1.5" stroke-linecap="round" stroke-linejoin="round"/>
<path d="M2 10V14C1.99969 15.0453 2.27246 16.0725 2.79129 16.9799C3.31013 17.8874 4.05703 18.6435 4.95801 19.1735C5.85899 19.7034 6.88279 19.9888 7.928 20.0014C8.97321 20.0139 10.0036 19.7532 10.917 19.245C13.189 17.978 14 17 18 16C20.232 15.442 22 14.21 22 12V8" stroke="#FC9C05" stroke-width="1.5" stroke-linecap="round" stroke-linejoin="round"/>
</svg>
